<svg xmlns="http://www.w3.org/2000/svg" width="71" height="10" viewBox="0 0 71 10" fill="none">
<circle cx="4.83721" cy="4.83721" r="4.53488" stroke="#38CB89" stroke-width="0.604651"/>
<circle cx="4.83722" cy="4.83721" r="3.02326" fill="#38CB89"/>
<path d="M70.6992 4.83789L67.2281 2.83382V6.84196L70.6992 4.83789ZM12.6992 5.18501H13.3897V4.49078H12.6992V5.18501ZM14.7706 5.18501H16.1516V4.49078H14.7706V5.18501ZM17.5326 5.18501H18.9135V4.49078H17.5326V5.18501ZM20.2945 5.18501H21.6754V4.49078H20.2945V5.18501ZM23.0564 5.18501H24.4373V4.49078H23.0564V5.18501ZM25.8183 5.18501H27.1992V4.49078H25.8183V5.18501ZM28.5802 5.18501H29.9611V4.49078H28.5802V5.18501ZM31.3421 5.18501H32.723V4.49078H31.3421V5.18501ZM34.104 5.18501H35.4849V4.49078H34.104V5.18501ZM36.8659 5.18501H38.2468V4.49078H36.8659V5.18501ZM39.6278 5.18501H41.0087V4.49078H39.6278V5.18501ZM42.3897 5.18501H43.7707V4.49078H42.3897V5.18501ZM45.1516 5.18501H46.5326V4.49078H45.1516V5.18501ZM47.9135 5.18501H49.2945V4.49078H47.9135V5.18501ZM50.6754 5.18501H52.0564V4.49078H50.6754V5.18501ZM53.4373 5.18501H54.8183V4.49078H53.4373V5.18501ZM56.1992 5.18501H57.5802V4.49078H56.1992V5.18501ZM58.9611 5.18501H60.3421V4.49078H58.9611V5.18501ZM61.723 5.18501H63.104V4.49078H61.723V5.18501ZM64.4849 5.18501H65.8659V4.49078H64.4849V5.18501ZM67.2468 5.18501H68.6278V4.49078H67.2468V5.18501Z" fill="#38CB89"/>
</svg>